<svg width="54.494141" height="17.379883" viewBox="0 0 54.4941 17.3799" fill="none" xmlns="http://www.w3.org/2000/svg" xmlns:xlink="http://www.w3.org/1999/xlink">
	<desc>
			Created with Pixso.
	</desc>
	<defs/>
	<path id="Vector" d="M11.1522 4.37988L12.0522 4.37988L12.0522 0L11.1522 0L11.1522 4.37988ZM18.0077 4.37988L18.9077 4.37988L18.9077 0L18.0077 0L18.0077 4.37988ZM13.1609 1.11621C13.4548 1.11621 13.7008 0.870117 13.7008 0.576172C13.7008 0.282227 13.4548 0.0361328 13.1609 0.0361328C12.8668 0.0361328 12.6208 0.282227 12.6208 0.576172C12.6208 0.870117 12.8668 1.11621 13.1609 1.11621ZM3.03003 4.37988L4.07996 4.37988L2.65198 0.180176L1.42798 0.180176L0 4.37988L1.05005 4.37988L1.26001 3.72021L2.81995 3.72021L3.03003 4.37988ZM16.0635 1.2959C15.6615 1.2959 15.3674 1.43408 15.1694 1.66211L15.1694 0.180176L14.2694 0.180176L14.2694 4.37988L15.1694 4.37988L15.1694 4.09814C15.3674 4.32617 15.6615 4.46387 16.0635 4.46387C16.8495 4.46387 17.4974 3.77393 17.4974 2.87988C17.4974 1.98584 16.8495 1.2959 16.0635 1.2959ZM37.1095 1.2959C36.7135 1.2959 36.4135 1.43994 36.2515 1.66211L36.2515 0.180176L35.3514 0.180176L35.3514 4.37988L36.2515 4.37988L36.2515 2.74219C36.2515 2.31592 36.4795 2.12402 36.8094 2.12402C37.0975 2.12402 37.3315 2.29785 37.3315 2.66992L37.3315 4.37988L38.2314 4.37988L38.2314 2.53809C38.2314 1.72803 37.7155 1.2959 37.1095 1.2959ZM34.8419 2.24414L34.8419 1.37988L34.2239 1.37988L34.2239 0.540039L33.3239 0.810059L33.3239 1.37988L32.8439 1.37988L32.8439 2.24414L33.3239 2.24414L33.3239 3.30615C33.3239 4.146 33.6659 4.5 34.8419 4.37988L34.8419 3.56396C34.4459 3.58789 34.2239 3.56396 34.2239 3.30615L34.2239 2.24414L34.8419 2.24414ZM1.54797 2.81982L2.04004 1.27783L2.53198 2.81982L1.54797 2.81982ZM9.59204 1.37988L9.59204 1.66211C9.39404 1.43408 9.09998 1.2959 8.698 1.2959C7.91199 1.2959 7.26404 1.98584 7.26404 2.87988C7.26404 3.77393 7.91199 4.46387 8.698 4.46387C9.09998 4.46387 9.39404 4.32617 9.59204 4.09814L9.59204 4.37988L10.4919 4.37988L10.4919 1.37988L9.59204 1.37988ZM20.3704 3.24023L22.5004 3.24023Q22.5364 3.06885 22.5364 2.87988C22.5364 1.97412 21.8883 1.2959 21.0123 1.2959C20.0643 1.2959 19.4164 1.98584 19.4164 2.87988C19.4164 3.77393 20.0524 4.46387 21.0784 4.46387C21.6483 4.46387 22.0923 4.25391 22.3864 3.84619L21.6664 3.43213C21.5464 3.56396 21.3363 3.66016 21.0903 3.66016C20.7604 3.66016 20.4844 3.55176 20.3704 3.24023ZM25.9868 4.46387C26.8688 4.46387 27.5768 3.77393 27.5768 2.87988C27.5768 1.98584 26.8688 1.2959 25.9868 1.2959C25.1047 1.2959 24.3969 1.98584 24.3969 2.87988C24.3969 3.77393 25.1047 4.46387 25.9868 4.46387ZM29.8439 1.2959C29.4479 1.2959 29.1478 1.43994 28.9858 1.66211L28.9858 1.37988L28.0858 1.37988L28.0858 4.37988L28.9858 4.37988L28.9858 2.74219C28.9858 2.31592 29.2139 2.12402 29.5438 2.12402C29.8319 2.12402 30.0659 2.29785 30.0659 2.66992L30.0659 4.37988L30.9658 4.37988L30.9658 2.53809C30.9658 1.72803 30.4498 1.2959 29.8439 1.2959ZM39.6536 3.24023L41.7836 3.24023C41.8075 3.12598 41.8196 3.00586 41.8196 2.87988C41.8196 1.97412 41.1715 1.2959 40.2955 1.2959C39.3475 1.2959 38.6996 1.98584 38.6996 2.87988C38.6996 3.77393 39.3356 4.46387 40.3616 4.46387C40.9315 4.46387 41.3755 4.25391 41.6696 3.84619L40.9496 3.43213C40.8296 3.56396 40.6195 3.66016 40.3735 3.66016C40.0436 3.66016 39.7676 3.55176 39.6536 3.24023ZM6.20496 1.37988L5.58093 3.28223L4.95691 1.37988L3.96094 1.37988L5.07092 4.37988L6.09094 4.37988L7.20093 1.37988L6.20496 1.37988ZM12.7108 4.37988L13.6108 4.37988L13.6108 1.37988L12.7108 1.37988L12.7108 4.37988ZM20.3523 2.56787C20.4363 2.26221 20.6643 2.09424 21.0063 2.09424C21.2764 2.09424 21.5464 2.22021 21.6423 2.56787L20.3523 2.56787ZM39.6355 2.56787C39.7195 2.26221 39.9475 2.09424 40.2896 2.09424C40.5596 2.09424 40.8296 2.22021 40.9255 2.56787L39.6355 2.56787ZM8.87793 3.61182C8.46399 3.61182 8.16394 3.33008 8.16394 2.87988C8.16394 2.43018 8.46399 2.14795 8.87793 2.14795C9.29199 2.14795 9.59204 2.43018 9.59204 2.87988C9.59204 3.33008 9.29199 3.61182 8.87793 3.61182ZM15.8834 3.61182C15.4695 3.61182 15.1694 3.33008 15.1694 2.87988C15.1694 2.43018 15.4695 2.14795 15.8834 2.14795C16.2975 2.14795 16.5974 2.43018 16.5974 2.87988C16.5974 3.33008 16.2975 3.61182 15.8834 3.61182ZM25.9868 3.58789C25.5968 3.58789 25.2968 3.30615 25.2968 2.87988C25.2968 2.4541 25.5968 2.17188 25.9868 2.17188C26.3768 2.17188 26.6768 2.4541 26.6768 2.87988C26.6768 3.30615 26.3768 3.58789 25.9868 3.58789ZM19.8079 15.3799L21.3079 15.3799L21.3079 8.08008L19.8079 8.08008L19.8079 15.3799ZM33.2063 15.52C34.7262 15.52 35.8063 14.7202 35.8063 13.3701C35.8063 11.8901 34.6162 11.52 33.5563 11.2002C32.4663 10.8701 32.2963 10.6499 32.2963 10.3301C32.2963 10.0498 32.5463 9.7998 33.0463 9.7998C33.6863 9.7998 34.0162 10.1099 34.2562 10.6099L35.6062 9.81982C35.0962 8.79004 34.1963 8.24023 33.0463 8.24023C31.8363 8.24023 30.6963 9.02002 30.6963 10.3701C30.6963 11.71 31.7163 12.21 32.7562 12.5C33.8063 12.79 34.2063 12.96 34.2063 13.3901C34.2063 13.6602 34.0162 13.96 33.2562 13.96C32.4663 13.96 32.0363 13.5698 31.7863 12.9902L30.4062 13.79C30.7963 14.8198 31.7362 15.52 33.2063 15.52ZM5.05005 15.3799L6.80005 15.3799L4.42004 8.37988L2.38 8.37988L0 15.3799L1.75 15.3799L2.09998 14.2798L4.69995 14.2798L5.05005 15.3799ZM39.3394 11.8198L39.3394 10.3799L38.3093 10.3799L38.3093 8.97998L36.8093 9.43018L36.8093 10.3799L36.0094 10.3799L36.0094 11.8198L36.8093 11.8198L36.8093 13.5898C36.8093 14.9902 37.3794 15.5801 39.3394 15.3799L39.3394 14.02C38.6793 14.0601 38.3093 14.02 38.3093 13.5898L38.3093 11.8198L39.3394 11.8198ZM2.57996 12.7798L3.40002 10.21L4.21997 12.7798L2.57996 12.7798ZM10.3369 10.2402C9.66687 10.2402 9.17688 10.4702 8.84692 10.8501L8.84692 10.3799L7.34692 10.3799L7.34692 17.3799L8.84692 17.3799L8.84692 14.9102C9.17688 15.29 9.66687 15.52 10.3369 15.52C11.6469 15.52 12.7269 14.3701 12.7269 12.8799C12.7269 11.3901 11.6469 10.2402 10.3369 10.2402ZM16.5674 10.2402C15.8973 10.2402 15.4073 10.4702 15.0774 10.8501L15.0774 10.3799L13.5774 10.3799L13.5774 17.3799L15.0774 17.3799L15.0774 14.9102C15.4073 15.29 15.8973 15.52 16.5674 15.52C17.8773 15.52 18.9574 14.3701 18.9574 12.8799C18.9574 11.3901 17.8773 10.2402 16.5674 10.2402ZM23.7455 13.48L27.2954 13.48C27.3354 13.29 27.3555 13.0898 27.3555 12.8799C27.3555 11.3701 26.2755 10.2402 24.8154 10.2402C23.2355 10.2402 22.1555 11.3901 22.1555 12.8799C22.1555 14.3701 23.2155 15.52 24.9254 15.52C25.8755 15.52 26.6155 15.1699 27.1055 14.4902L25.9055 13.7998C25.7054 14.02 25.3555 14.1802 24.9454 14.1802C24.3955 14.1802 23.9354 14 23.7455 13.48ZM42.491 15.52C43.9611 15.52 45.141 14.3701 45.141 12.8799C45.141 11.3901 43.9611 10.2402 42.491 10.2402C41.021 10.2402 39.8411 11.3901 39.8411 12.8799C39.8411 14.3701 41.021 15.52 42.491 15.52ZM50.8842 13.48L54.4341 13.48Q54.4941 13.1948 54.4941 12.8799C54.4941 11.3701 53.4142 10.2402 51.9541 10.2402C50.3741 10.2402 49.2942 11.3901 49.2942 12.8799C49.2942 14.3701 50.3541 15.52 52.0641 15.52C53.0142 15.52 53.7542 15.1699 54.2441 14.4902L53.0442 13.7998C52.8441 14.02 52.4941 14.1802 52.0841 14.1802C51.5342 14.1802 51.0741 14 50.8842 13.48ZM47.4895 11.27L47.4895 10.3799L45.9895 10.3799L45.9895 15.3799L47.4895 15.3799L47.4895 13.1201C47.4895 12.1299 48.3695 11.8799 48.9895 11.98L48.9895 10.2798C48.3595 10.2798 47.6895 10.6001 47.4895 11.27ZM23.7155 12.3599C23.8555 11.8501 24.2355 11.5698 24.8054 11.5698C25.2555 11.5698 25.7054 11.7798 25.8655 12.3599L23.7155 12.3599ZM50.8541 12.3599C50.9941 11.8501 51.3741 11.5698 51.9441 11.5698C52.3942 11.5698 52.8441 11.7798 53.0042 12.3599L50.8541 12.3599ZM10.0369 14.1001C9.34692 14.1001 8.84692 13.6299 8.84692 12.8799C8.84692 12.1299 9.34692 11.6602 10.0369 11.6602C10.7269 11.6602 11.2269 12.1299 11.2269 12.8799C11.2269 13.6299 10.7269 14.1001 10.0369 14.1001ZM16.2673 14.1001C15.5774 14.1001 15.0774 13.6299 15.0774 12.8799C15.0774 12.1299 15.5774 11.6602 16.2673 11.6602C16.9574 11.6602 17.4574 12.1299 17.4574 12.8799C17.4574 13.6299 16.9574 14.1001 16.2673 14.1001ZM42.491 14.0601C41.8411 14.0601 41.3411 13.5898 41.3411 12.8799C41.3411 12.1699 41.8411 11.7002 42.491 11.7002C43.141 11.7002 43.641 12.1699 43.641 12.8799C43.641 13.5898 43.141 14.0601 42.491 14.0601Z" fill="#FFFFFF" fill-opacity="1.000000" fill-rule="evenodd"/>
</svg>
