<svg width="53.640869" height="14.799805" viewBox="0 0 53.6409 14.7998" fill="none" xmlns="http://www.w3.org/2000/svg" xmlns:xlink="http://www.w3.org/1999/xlink">
	<desc>
			Created with Pixso.
	</desc>
	<defs/>
	<path id="Vector" d="M5.78406 2.5918L2.97595 2.5918L2.97595 3.71191L4.47205 3.71191C4.27197 4.24805 3.78406 4.57617 3.04004 4.57617C1.95203 4.57617 1.28003 3.87988 1.28003 2.92822C1.28003 1.94385 1.98401 1.24805 2.92798 1.24805C3.56006 1.24805 4.06396 1.53613 4.29602 1.90381L5.38403 1.27979C4.91199 0.527832 4.00806 0 2.93604 0C1.28796 0 0 1.2959 0 2.91992C0 4.52783 1.26404 5.82422 3.02405 5.82422C4.59204 5.82422 5.78406 4.78418 5.78406 3.07178L5.78406 2.5918ZM25.5027 5.82422C27.1106 5.82422 28.4147 4.56006 28.4147 2.91211C28.4147 1.26416 27.1106 0 25.5027 0C23.8947 0 22.5906 1.26416 22.5906 2.91211C22.5906 4.56006 23.8947 5.82422 25.5027 5.82422ZM7.38562 4.47998L7.38562 3.48779L9.38562 3.48779L9.38562 2.27197L7.38562 2.27197L7.38562 1.34424L10.9878 1.34424L10.9878 5.71191L12.2678 5.71191L12.2678 1.34424L13.7078 1.34424L13.7078 0.111816L6.10559 0.111816L6.10559 5.71191L9.62561 5.71191L9.62561 4.47998L7.38562 4.47998ZM15.4681 0.111816L15.4681 5.71191L16.7482 5.71191L16.7482 0.111816L15.4681 0.111816ZM21.0703 0.111816L16.9103 0.111816L16.9103 1.34424L18.3503 1.34424L18.3503 5.71191L19.6304 5.71191L19.6304 1.34424L21.0703 1.34424L21.0703 0.111816ZM31.8553 0.111816L31.8553 3.15186L29.6953 0.111816L28.7354 0.111816L28.7354 5.71191L30.0153 5.71191L30.0153 2.67188L32.1753 5.71191L33.1353 5.71191L33.1353 0.111816L31.8553 0.111816ZM25.5027 4.57617C24.5906 4.57617 23.8706 3.91211 23.8706 2.91211C23.8706 1.91211 24.5906 1.24805 25.5027 1.24805C26.4147 1.24805 27.1346 1.91211 27.1346 2.91211C27.1346 3.91211 26.4147 4.57617 25.5027 4.57617ZM5.78406 12.3198L5.78406 12.104L2.97595 12.104L2.97595 12.5039L5.35205 12.5039C5.30396 13.0479 5.07739 13.4985 4.672 13.856Q4.58875 13.9292 4.49854 13.9927L4.49841 13.9927Q3.92932 14.3921 3.07996 14.3921Q2.33081 14.3921 1.76685 14.0688Q1.49365 13.9121 1.26404 13.6802Q0.961182 13.3701 0.788574 13Q0.560059 12.5093 0.560059 11.9121Q0.560059 11.2939 0.80188 10.793Q0.970337 10.4443 1.25598 10.1519Q1.51831 9.88379 1.83386 9.71533Q2.36536 9.43213 3.04797 9.43213Q3.46729 9.43213 3.84082 9.56299Q4.05176 9.63672 4.24805 9.75195Q4.64148 9.97998 4.89685 10.314Q4.99963 10.4482 5.07996 10.6001L5.45605 10.376C5.22131 9.96533 4.88794 9.63721 4.45605 9.39209Q4.23047 9.26221 3.98901 9.17822Q3.54529 9.02393 3.04797 9.02393Q2.26624 9.02393 1.65271 9.34521Q1.27429 9.54346 0.959961 9.86377Q0.601562 10.2261 0.399048 10.6606Q0.135986 11.2251 0.135986 11.9121Q0.135986 12.5791 0.386353 13.1328Q0.592285 13.5889 0.968018 13.9678Q1.26575 14.2656 1.62073 14.457Q2.25793 14.7998 3.07996 14.7998Q4.03638 14.7998 4.70081 14.3594Q4.88123 14.2402 5.04004 14.0879Q5.39722 13.7422 5.58289 13.3213Q5.78406 12.8647 5.78406 12.3198ZM10.5889 14.5654Q11.0667 14.356 11.4626 13.96Q11.8749 13.5439 12.0848 13.043Q12.3026 12.5229 12.3026 11.9121Q12.3026 11.2915 12.0779 10.7671Q11.8682 10.2773 11.4626 9.87207Q11.0596 9.46533 10.5719 9.25342Q10.0431 9.02393 9.41467 9.02393Q8.78625 9.02393 8.25732 9.25342Q7.76965 9.46533 7.36658 9.87207Q6.96106 10.2773 6.75134 10.7671Q6.52661 11.2915 6.52661 11.9121Q6.52661 12.5229 6.74438 13.043Q6.95435 13.5439 7.36658 13.96Q7.76257 14.356 8.24036 14.5654Q8.77612 14.7998 9.41467 14.7998Q10.0531 14.7998 10.5889 14.5654ZM17.1201 14.5654Q17.5979 14.356 17.9939 13.96Q18.4061 13.5439 18.6161 13.043Q18.8339 12.5229 18.8339 11.9121Q18.8339 11.2915 18.6091 10.7671Q18.3994 10.2773 17.9939 9.87207Q17.5908 9.46533 17.1031 9.25342Q16.5743 9.02393 15.9459 9.02393Q15.3174 9.02393 14.7886 9.25342Q14.3009 9.46533 13.8978 9.87207Q13.4923 10.2773 13.2826 10.7671Q13.0579 11.2915 13.0579 11.9121Q13.0579 12.5229 13.2756 13.043Q13.4856 13.5439 13.8978 13.96Q14.2938 14.356 14.7716 14.5654Q15.3074 14.7998 15.9459 14.7998Q16.5844 14.7998 17.1201 14.5654ZM25.2372 12.3198L25.2372 12.104L22.4291 12.104L22.4291 12.5039L24.8052 12.5039C24.7571 13.0479 24.5305 13.4985 24.1251 13.856C23.7198 14.2134 23.1891 14.3921 22.5331 14.3921Q21.7839 14.3921 21.22 14.0688Q20.9468 13.9121 20.7172 13.6802Q20.4143 13.3701 20.2417 13Q20.0132 12.5093 20.0132 11.9121Q20.0132 11.2939 20.255 10.793Q20.4235 10.4443 20.7091 10.1519C21.1785 9.67188 21.7758 9.43213 22.5011 9.43213C22.9385 9.43213 23.3385 9.53857 23.7012 9.75195C24.0691 9.96533 24.3464 10.248 24.5331 10.6001L24.9092 10.376C24.6744 9.96533 24.3411 9.63721 23.9092 9.39209C23.4824 9.14648 23.0132 9.02393 22.5011 9.02393Q21.7194 9.02393 21.1058 9.34521Q20.7275 9.54346 20.4131 9.86377Q20.0547 10.2261 19.8522 10.6606Q19.5891 11.2251 19.5891 11.9121Q19.5891 12.5791 19.8395 13.1328Q20.0454 13.5889 20.4211 13.9678Q20.7188 14.2656 21.0739 14.457Q21.7111 14.7998 22.5331 14.7998Q23.4895 14.7998 24.1539 14.3594Q24.3344 14.2402 24.4932 14.0879Q24.8503 13.7422 25.036 13.3213Q25.2372 12.8647 25.2372 12.3198ZM29.3638 14.312L26.7238 14.312L26.7238 9.11182L26.2998 9.11182L26.2998 14.7119L29.3638 14.7119L29.3638 14.312ZM33.4691 14.312L30.6691 14.312L30.6691 12.0879L33.229 12.0879L33.229 11.688L30.6691 11.688L30.6691 9.51221L33.4291 9.51221L33.4291 9.11182L30.2451 9.11182L30.2451 14.7119L33.4691 14.7119L33.4691 14.312ZM39.7955 9.60791Q39.606 9.41846 39.3792 9.30127Q39.0122 9.11182 38.5475 9.11182L36.6436 9.11182L36.6436 14.7119L37.0675 14.7119L37.0675 12.5762L38.5475 12.5762Q39.0242 12.5762 39.3981 12.3799Q39.6139 12.2666 39.7955 12.0879Q39.9939 11.8896 40.1129 11.6514Q40.2915 11.2944 40.2915 10.8481Q40.2915 10.4014 40.1129 10.0444Q39.9939 9.80664 39.7955 9.60791ZM44.4028 14.312L41.7628 14.312L41.7628 9.11182L41.3389 9.11182L41.3389 14.7119L44.4028 14.7119L44.4028 14.312ZM48.6644 13.2881L49.2084 14.7119L49.6564 14.7119L47.4884 9.11182L47.0404 9.11182L44.8644 14.7119L45.3124 14.7119L45.8563 13.2881L48.6644 13.2881ZM51.6008 12.4082L53.6409 9.11182L53.1609 9.11182L51.3928 12L49.6168 9.11182L49.1368 9.11182L51.1769 12.4082L51.1769 14.7119L51.6008 14.7119L51.6008 12.4082ZM8.42065 14.1953Q8.0061 14.0156 7.6626 13.6719Q7.32336 13.3252 7.14575 12.9092Q6.95068 12.4521 6.95068 11.9121C6.95068 11.2241 7.18799 10.6401 7.6626 10.1602Q8.01306 9.80566 8.4375 9.62402Q8.88489 9.43213 9.41467 9.43213Q9.95349 9.43213 10.4052 9.63037Q10.8185 9.81201 11.1586 10.1602C11.6387 10.6401 11.8787 11.2241 11.8787 11.9121Q11.8787 12.4419 11.6887 12.8921Q11.5088 13.3179 11.1586 13.6719Q10.8254 14.0088 10.422 14.1885Q9.96362 14.3921 9.41467 14.3921Q8.875 14.3921 8.42065 14.1953ZM14.9519 14.1953Q14.5374 14.0156 14.1938 13.6719Q13.8546 13.3252 13.677 12.9092Q13.4819 12.4521 13.4819 11.9121C13.4819 11.2241 13.7192 10.6401 14.1938 10.1602Q14.5443 9.80566 14.9688 9.62402Q15.4161 9.43213 15.9459 9.43213Q16.4847 9.43213 16.9364 9.63037Q17.3497 9.81201 17.6898 10.1602C18.1699 10.6401 18.4099 11.2241 18.4099 11.9121C18.4099 12.6001 18.1699 13.1865 17.6898 13.6719Q17.3567 14.0088 16.9532 14.1885Q16.4949 14.3921 15.9459 14.3921Q15.4062 14.3921 14.9519 14.1953ZM39.4915 11.7998Q39.3623 11.9321 39.2074 12.0176Q38.9213 12.1758 38.5475 12.1758L37.0675 12.1758L37.0675 9.51221L38.5475 9.51221Q38.9213 9.51221 39.2074 9.67041Q39.3623 9.75586 39.4915 9.88818C39.7422 10.1387 39.8676 10.4585 39.8676 10.8481C39.8676 11.2319 39.7422 11.5493 39.4915 11.7998ZM48.5123 12.8882L46.0164 12.8882L47.2644 9.63184L48.5123 12.8882Z" fill="#FFFFFF" fill-opacity="1.000000" fill-rule="evenodd"/>
</svg>
