<svg width="21" height="18" viewBox="0 0 21 18" fill="none" xmlns="http://www.w3.org/2000/svg">
<path d="M4.3 5.6C4.07909 5.43431 3.76569 5.47909 3.6 5.7C3.43431 5.92091 3.47909 6.23431 3.7 6.4L9.1 10.45C9.63333 10.85 10.3667 10.85 10.9 10.45L16.3 6.4C16.5209 6.23431 16.5657 5.92091 16.4 5.7C16.2343 5.47909 15.9209 5.43431 15.7 5.6L10.3 9.65C10.1222 9.78333 9.87778 9.78333 9.7 9.65L4.3 5.6ZM0.5 5C0.5 2.51472 2.51472 0.5 5 0.5H16C18.4853 0.5 20.5 2.51472 20.5 5V13C20.5 15.4853 18.4853 17.5 16 17.5H5C2.51472 17.5 0.5 15.4853 0.5 13V5Z" stroke="#39425D" stroke-linecap="round"/>
</svg>
