<svg width="14" height="14" viewBox="0 0 14 14" fill="none" xmlns="http://www.w3.org/2000/svg">
<path d="M13.6544 0.150827C13.2855 0.0428744 4.26244 -0.855475 1.09361 3.42567C-0.309832 5.32223 -0.330914 7.9221 1.02328 11.1525C0.679764 11.8655 0.379038 12.6166 0.133956 13.4091C0.0594446 13.6499 0.194222 13.9052 0.434764 13.9795C0.479608 13.9934 0.525026 14 0.56987 14C0.764338 14 0.944888 13.8744 1.00515 13.6787C3.42037 5.87028 11.2693 2.09267 13.6762 1.13835C13.9105 1.0454 14.2235 0.317405 13.6544 0.150827Z" fill="#84829A"/>
<path d="M2.47183 12.1297C3.77823 12.6777 5.08444 12.9586 6.29913 12.9586C7.39094 12.9586 8.40913 12.7342 9.28654 12.279C11.0524 11.3629 12.1314 9.61074 12.407 7.21125C12.6877 4.76582 13.0372 3.23409 13.3288 2.29705C10.7335 3.49421 5.16869 6.59733 2.47183 12.1297Z" fill="#84829A"/>
</svg>
