<svg width="65" height="64" viewBox="0 0 65 64" fill="none" xmlns="http://www.w3.org/2000/svg">
<path d="M50.6104 17.9903C51.3018 19.1877 51.2091 20.6135 50.3677 21.711L31.8939 45.8181C31.132 46.8122 29.8775 47.319 28.5948 47.0728C27.3386 46.8312 26.3426 45.9155 25.997 44.684L22.9788 33.9435L15.1863 25.9594C14.2926 25.0443 13.9976 23.7239 14.4165 22.5153C14.831 21.3205 15.8707 20.4535 17.1526 20.2855L47.2669 16.3403C48.638 16.1603 49.9191 16.793 50.6104 17.9903Z" fill="white"/>
<path d="M25.997 44.684C26.3426 45.9155 27.3386 46.8312 28.5948 47.0728C29.8775 47.319 31.132 46.8122 31.8939 45.8181L50.3677 21.711C51.2091 20.6135 51.3018 19.1877 50.6104 17.9903L22.9788 33.9435L25.997 44.684Z" fill="white"/>
<path d="M34.2231 27.4514C34.5043 27.9383 34.3379 28.5614 33.8503 28.8429L23.2636 34.9552L22.9789 33.9433L22.2449 33.1908L32.8316 27.0785C33.3192 26.7971 33.942 26.9645 34.2231 27.4514Z" fill="url(#paint0_linear_1_491)"/>
<path d="M23.2636 34.9552L33.8503 28.8429C34.3379 28.5614 34.5043 27.9383 34.2231 27.4514L22.9789 33.9433L23.2636 34.9552Z" fill="url(#paint1_linear_1_491)"/>
<defs>
<linearGradient id="paint0_linear_1_491" x1="30.8372" y1="27.1667" x2="28.3706" y2="36.5632" gradientUnits="userSpaceOnUse">
<stop stop-color="#747DEF"/>
<stop offset="1" stop-color="#5E3BE1"/>
</linearGradient>
<linearGradient id="paint1_linear_1_491" x1="30.8372" y1="27.1667" x2="28.3706" y2="36.5632" gradientUnits="userSpaceOnUse">
<stop stop-color="#747DEF"/>
<stop offset="1" stop-color="#5E3BE1"/>
</linearGradient>
</defs>
</svg>
