<svg width="24" height="18" viewBox="0 0 24 18" fill="none" xmlns="http://www.w3.org/2000/svg">
<path d="M20.8184 17.9288C20.3682 17.938 19.926 17.8092 19.5512 17.5597C19.2723 17.3774 18.9462 17.2803 18.613 17.2803C18.2797 17.2803 17.9537 17.3774 17.6747 17.5597C17.2961 17.8008 16.8566 17.9288 16.4077 17.9288C15.9589 17.9288 15.5194 17.8008 15.1407 17.5597C14.8618 17.3772 14.5357 17.2801 14.2023 17.2801C13.869 17.2801 13.5429 17.3772 13.2639 17.5597C12.8853 17.8008 12.4457 17.9288 11.9969 17.9288C11.5481 17.9288 11.1086 17.8008 10.7299 17.5597C10.4512 17.3773 10.1253 17.2802 9.79215 17.2802C9.45903 17.2802 9.13314 17.3773 8.85437 17.5597C8.5111 17.7878 8.11049 17.9146 7.69848 17.9255L7.67577 17.2769C7.98011 17.2697 8.27565 17.1734 8.52583 16.9999C8.90435 16.7589 9.34376 16.6309 9.79248 16.6309C10.2412 16.6309 10.6806 16.7589 11.0591 16.9999C11.3381 17.1823 11.6641 17.2794 11.9974 17.2794C12.3307 17.2794 12.6567 17.1823 12.9357 16.9999C13.3143 16.7587 13.754 16.6306 14.203 16.6306C14.6519 16.6306 15.0916 16.7587 15.4703 16.9999C15.7492 17.1823 16.0753 17.2794 16.4085 17.2794C16.7418 17.2794 17.0679 17.1823 17.3468 16.9999C17.7254 16.7589 18.165 16.631 18.6138 16.631C19.0626 16.631 19.5021 16.7589 19.8808 16.9999C20.1604 17.1827 20.4872 17.2801 20.8213 17.2801C21.1554 17.2801 21.4822 17.1827 21.7618 16.9999C22.1362 16.7512 22.5776 16.6226 23.027 16.6315V17.2801C22.6924 17.271 22.3636 17.3688 22.0884 17.5594C21.7127 17.8092 21.2695 17.9381 20.8184 17.9288Z" fill="white"/>
<path d="M3.17837 17.9288C2.7283 17.9381 2.28619 17.8093 1.91156 17.5597C1.63643 17.369 1.30761 17.271 0.972961 17.2801V16.6315C1.42313 16.6222 1.86536 16.751 2.2401 17.0006C2.51507 17.1914 2.84381 17.2893 3.17837 17.2801C3.51307 17.2893 3.84195 17.1913 4.11696 17.0003C4.4909 16.7508 4.9324 16.6221 5.38182 16.6315C5.82036 16.6217 6.25164 16.7445 6.61912 16.984L6.29188 17.5438C6.02345 17.3632 5.70525 17.271 5.38182 17.2801C5.0485 17.2712 4.72102 17.3689 4.44712 17.5591C4.07206 17.8094 3.62917 17.9384 3.17837 17.9288Z" fill="white"/>
<path d="M20.8193 15.6582C20.3689 15.6674 19.9264 15.5386 19.5512 15.2891C19.272 15.1067 18.9457 15.0095 18.6122 15.0095C18.2786 15.0095 17.9523 15.1067 17.6731 15.2891C17.2945 15.5301 16.855 15.6581 16.4063 15.6581C15.9575 15.6581 15.518 15.5301 15.1395 15.2891C14.8606 15.1068 14.5347 15.0097 14.2015 15.0097C13.8683 15.0097 13.5424 15.1068 13.2636 15.2891C12.885 15.5302 12.4455 15.6582 11.9967 15.6582C11.548 15.6582 11.1085 15.5302 10.7299 15.2891C10.4511 15.1068 10.1252 15.0097 9.79199 15.0097C9.45882 15.0097 9.13288 15.1068 8.85404 15.2891C8.47942 15.5388 8.0373 15.6676 7.58723 15.6582C7.13716 15.6676 6.69504 15.5388 6.32042 15.2891C6.04555 15.0984 5.71693 15.0004 5.38248 15.0096C5.04813 15.0005 4.71963 15.0984 4.44485 15.2891C4.07083 15.5385 3.62941 15.6673 3.17999 15.6582C2.72982 15.6676 2.28759 15.5388 1.91285 15.2891C1.63743 15.098 1.30807 15 0.972961 15.0096V14.3609C1.42302 14.3516 1.86513 14.4804 2.23977 14.73C2.5149 14.9207 2.84372 15.0187 3.17837 15.0096C3.51271 15.0187 3.84121 14.9207 4.11599 14.73C4.49002 14.4807 4.93143 14.3519 5.38085 14.3609C5.83125 14.3514 6.27375 14.4802 6.64864 14.73C6.92361 14.9208 7.25235 15.0187 7.58691 15.0096C7.92147 15.0187 8.2502 14.9208 8.52518 14.73C8.90372 14.4889 9.34319 14.3608 9.79199 14.3608C10.2408 14.3608 10.6803 14.4889 11.0588 14.73C11.3377 14.9124 11.6637 15.0095 11.9969 15.0095C12.3301 15.0095 12.6561 14.9124 12.935 14.73C13.3136 14.4889 13.753 14.3608 14.2018 14.3608C14.6506 14.3608 15.0901 14.4889 15.4686 14.73C15.7475 14.9124 16.0735 15.0095 16.4067 15.0095C16.74 15.0095 17.066 14.9124 17.3449 14.73C17.7238 14.489 18.1636 14.361 18.6126 14.361C19.0617 14.361 19.5015 14.489 19.8804 14.73C20.1598 14.9123 20.4862 15.0094 20.8198 15.0094C21.1534 15.0094 21.4798 14.9123 21.7592 14.73C22.1343 14.4806 22.5767 14.3518 23.027 14.3609V15.0096C22.6917 15.0001 22.3622 15.098 22.0865 15.2891C21.7116 15.5384 21.2695 15.6672 20.8193 15.6582Z" fill="white"/>
<path d="M20.8184 13.3883C20.3682 13.3975 19.926 13.2687 19.5512 13.0192C19.2761 12.8285 18.9473 12.7305 18.6126 12.7396C18.367 12.7312 18.1232 12.7836 17.9027 12.8921L17.6166 12.3083C17.9263 12.1565 18.2679 12.0817 18.6126 12.09C19.0633 12.0808 19.506 12.21 19.8811 12.4601C20.1607 12.6429 20.4875 12.7402 20.8216 12.7402C21.1557 12.7402 21.4825 12.6429 21.7622 12.4601C22.1364 12.2111 22.5777 12.0824 23.027 12.091V12.7396C22.6924 12.7305 22.3636 12.8283 22.0884 13.0189C21.7127 13.2687 21.2695 13.3976 20.8184 13.3883Z" fill="white"/>
<path d="M16.4043 13.3882C15.9549 13.3976 15.5134 13.2689 15.1394 13.0194C14.8605 12.837 14.5344 12.7398 14.201 12.7398C13.8677 12.7398 13.5416 12.837 13.2626 13.0194C12.884 13.2605 12.4444 13.3885 11.9956 13.3885C11.5468 13.3885 11.1073 13.2605 10.7286 13.0194C10.4497 12.8371 10.1236 12.74 9.79037 12.74C9.4571 12.74 9.13105 12.8371 8.8521 13.0194C8.47753 13.2686 8.03572 13.3973 7.58593 13.3882C7.13587 13.3975 6.69376 13.2687 6.31912 13.0191C6.044 12.8284 5.71518 12.7304 5.38053 12.7396C5.0472 12.7306 4.71972 12.8283 4.44583 13.0185C4.07112 13.2685 3.62873 13.3976 3.17837 13.3882C2.7283 13.3975 2.28619 13.2687 1.91156 13.0191C1.63643 12.8284 1.30761 12.7304 0.972961 12.7396V12.0909C1.42313 12.0816 1.86536 12.2104 2.2401 12.46C2.51507 12.6508 2.84381 12.7487 3.17837 12.7396C3.51308 12.7487 3.84196 12.6507 4.11696 12.4597C4.4909 12.2102 4.9324 12.0815 5.38183 12.0909C5.83189 12.0816 6.27399 12.2104 6.64864 12.46C6.92361 12.6508 7.25235 12.7487 7.58691 12.7396C7.92156 12.7487 8.25038 12.6507 8.5255 12.46C8.90412 12.2189 9.34364 12.0909 9.79248 12.0909C10.2413 12.0909 10.6808 12.2189 11.0594 12.46C11.3384 12.6424 11.6644 12.7395 11.9977 12.7395C12.331 12.7395 12.657 12.6424 12.936 12.46C13.3147 12.2188 13.7543 12.0906 14.2033 12.0906C14.6523 12.0906 15.0919 12.2188 15.4706 12.46C15.7563 12.6522 16.0952 12.7498 16.4393 12.7392C16.4644 12.7395 16.4894 12.7382 16.5143 12.7353L16.6005 13.3781C16.5354 13.3857 16.4699 13.3891 16.4043 13.3882Z" fill="white"/>
<path d="M20.8193 11.1176C20.3689 11.1268 19.9264 10.998 19.5512 10.7485C19.272 10.5661 18.9457 10.4689 18.6122 10.4689C18.2786 10.4689 17.9523 10.5661 17.6731 10.7485C17.2945 10.9895 16.855 11.1175 16.4063 11.1175C15.9575 11.1175 15.518 10.9895 15.1395 10.7485C14.8606 10.5662 14.5347 10.4691 14.2015 10.4691C13.8683 10.4691 13.5424 10.5662 13.2636 10.7485C12.885 10.9896 12.4455 11.1176 11.9967 11.1176C11.548 11.1176 11.1085 10.9896 10.7299 10.7485C10.4511 10.5662 10.1252 10.4691 9.79199 10.4691C9.45882 10.4691 9.13288 10.5662 8.85404 10.7485C8.47942 10.9981 8.0373 11.127 7.58723 11.1176C7.13716 11.127 6.69504 10.9981 6.32042 10.7485C6.04555 10.5578 5.71693 10.4598 5.38248 10.469C5.04813 10.4599 4.71963 10.5578 4.44485 10.7485C4.07083 10.9979 3.62941 11.1267 3.17999 11.1176C2.72982 11.127 2.28759 10.9982 1.91285 10.7485C1.63743 10.5574 1.30807 10.4594 0.972961 10.469V9.82032C1.42302 9.81101 1.86513 9.93982 2.23977 10.1894C2.5149 10.3801 2.84372 10.4781 3.17837 10.469C3.51271 10.478 3.84121 10.3801 4.11599 10.1894C4.49002 9.94007 4.93143 9.81127 5.38085 9.82032C5.83125 9.81075 6.27375 9.93957 6.64864 10.1894C6.92361 10.3802 7.25235 10.4781 7.58691 10.469C7.92147 10.4781 8.2502 10.3802 8.52518 10.1894C8.90372 9.9483 9.34319 9.82024 9.79199 9.82024C10.2408 9.82024 10.6803 9.9483 11.0588 10.1894C11.3377 10.3718 11.6637 10.4689 11.9969 10.4689C12.3301 10.4689 12.6561 10.3718 12.935 10.1894C13.3136 9.9483 13.753 9.82024 14.2018 9.82024C14.6506 9.82024 15.0901 9.9483 15.4686 10.1894C15.7475 10.3718 16.0735 10.4689 16.4067 10.4689C16.74 10.4689 17.066 10.3718 17.3449 10.1894C17.7238 9.9484 18.1636 9.8204 18.6126 9.8204C19.0617 9.8204 19.5015 9.9484 19.8804 10.1894C20.1598 10.3717 20.4862 10.4688 20.8198 10.4688C21.1534 10.4688 21.4798 10.3717 21.7592 10.1894C22.1343 9.93997 22.5767 9.81119 23.027 9.82032V10.469C22.6917 10.4595 22.3622 10.5574 22.0865 10.7485C21.7116 10.9978 21.2695 11.1266 20.8193 11.1176Z" fill="white"/>
<path d="M16.1977 10.8426L15.5857 10.6279C15.7433 10.175 15.8077 9.69496 15.775 9.21658C15.7423 8.7382 15.6132 8.27138 15.3953 7.8442L13.1676 3.48172C13.1456 3.43864 13.1335 3.39118 13.1322 3.34283C13.1309 3.29447 13.1405 3.24644 13.1601 3.20226C13.1798 3.15807 13.2092 3.11885 13.246 3.08746C13.2828 3.05607 13.3261 3.03331 13.3729 3.02085L17.8125 1.83707C17.9572 1.79923 18.0811 1.70579 18.1572 1.57708C18.2334 1.44837 18.2556 1.29481 18.2191 1.14979C18.1826 1.00477 18.0903 0.880037 17.9623 0.802725C17.8343 0.725413 17.6809 0.701777 17.5356 0.73696L12.1622 2.02128C12.0473 2.04843 11.9402 2.10165 11.8492 2.17683C11.7582 2.25201 11.6858 2.34713 11.6374 2.45482C11.5891 2.5625 11.5662 2.67987 11.5705 2.79783C11.5749 2.91578 11.6063 3.03115 11.6624 3.13501L13.258 6.09934C13.2985 6.17468 13.3076 6.26296 13.2833 6.34496C13.259 6.42696 13.2033 6.49604 13.1283 6.53717L11.0689 7.67231L10.7559 7.10409L12.5338 6.12398L11.0919 3.44247C10.9887 3.25105 10.931 3.03846 10.9231 2.82115C10.9152 2.60384 10.9575 2.38764 11.0465 2.18925C11.1355 1.99086 11.269 1.81561 11.4366 1.67705C11.6042 1.53849 11.8014 1.44032 12.013 1.39015L17.3838 0.106149C17.6964 0.0271432 18.0277 0.0755806 18.3046 0.240805C18.5816 0.40603 18.7816 0.674507 18.8606 0.987176C18.9396 1.29984 18.8912 1.63109 18.7259 1.90805C18.5607 2.185 18.2922 2.38498 17.9796 2.46399L13.9275 3.54399L15.9733 7.54874C16.2309 8.05426 16.3836 8.60666 16.4222 9.17272C16.4607 9.73878 16.3844 10.3068 16.1977 10.8426Z" fill="white"/>
<path d="M9.62226 7.73402L5.681 9.90577L5.99389 10.4736L9.93515 8.30185L9.62226 7.73402Z" fill="white"/>
<path d="M19.1351 8.6852C18.654 8.6852 18.1837 8.54254 17.7837 8.27526C17.3837 8.00798 17.072 7.62809 16.8879 7.18362C16.7037 6.73915 16.6556 6.25007 16.7494 5.77823C16.8433 5.30638 17.075 4.87296 17.4151 4.53278C17.7553 4.1926 18.1887 3.96093 18.6606 3.86708C19.1324 3.77322 19.6215 3.82139 20.066 4.0055C20.5104 4.1896 20.8903 4.50137 21.1576 4.90138C21.4249 5.30139 21.5676 5.77168 21.5676 6.25277C21.5669 6.89768 21.3104 7.51598 20.8544 7.972C20.3983 8.42802 19.78 8.68451 19.1351 8.6852ZM19.1351 4.46899C18.7823 4.46899 18.4374 4.5736 18.1441 4.76961C17.8508 4.96561 17.6221 5.2442 17.4871 5.57015C17.3521 5.89609 17.3168 6.25475 17.3856 6.60077C17.4544 6.94679 17.6243 7.26463 17.8738 7.51409C18.1233 7.76356 18.4411 7.93345 18.7871 8.00228C19.1331 8.07111 19.4918 8.03578 19.8177 7.90077C20.1437 7.76576 20.4223 7.53713 20.6183 7.24379C20.8143 6.95044 20.9189 6.60557 20.9189 6.25277C20.9183 5.77986 20.7302 5.3265 20.3958 4.99211C20.0614 4.65771 19.608 4.46959 19.1351 4.46899Z" fill="white"/>
</svg>
